<svg xmlns="http://www.w3.org/2000/svg" xmlns:xlink="http://www.w3.org/1999/xlink" viewBox="0 0 191.51 191.51"><defs><style>.cls-1{fill:none;}.cls-2{fill:#b4342b;}.cls-3{fill:#a22d26;}.cls-4{clip-path:url(#clip-path);}.cls-5{fill:#d9a78b;}.cls-6{fill:#bed3dd;}.cls-7{fill:#e9bfa6;}.cls-8{fill:#f1d6bb;}.cls-9{fill:#cee0e9;}.cls-10{fill:#fff;}.cls-11{fill:#8a603d;}</style><clipPath id="clip-path" transform="translate(0 0)"><circle class="cls-1" cx="95.75" cy="95.75" r="95.75"/></clipPath></defs><title>Circle Brandon</title><g id="Ebene_2" data-name="Ebene 2"><g id="Ebene_1-2" data-name="Ebene 1"><g id="men_1" data-name="men 1"><circle class="cls-2" cx="95.75" cy="95.75" r="95.75"/><path class="cls-3" d="M191.51,95.76A95.75,95.75,0,0,0,95.75,0V191.51A95.75,95.75,0,0,0,191.51,95.76Z" transform="translate(0 0)"/><g class="cls-4"><rect class="cls-5" x="81.73" y="119.9" width="28.04" height="30.75"/><path class="cls-6" d="M113.18,138.23s26.66,3.9,30.6,8C147.2,149.8,154.33,184,156,191.51H95.75V139.68Z" transform="translate(0 0)"/><path class="cls-7" d="M95.75,31.92c13.62,0,35.15,7.74,35.15,44,0,20.94-6.83,34.66-9.8,38.45-2.74,3.49-18.13,10.93-25.34,10.93Z" transform="translate(0 0)"/><path class="cls-7" d="M137.67,84.58c.6-5.79-2.16-10.94-6.16-11.49s-7.74,3.7-8.34,9.5,2.16,10.94,6.17,11.49S137.07,90.37,137.67,84.58Z" transform="translate(0 0)"/><path class="cls-8" d="M95.75,31.92c-13.62,0-35.15,7.74-35.15,44,0,20.94,6.83,34.66,9.8,38.45,2.74,3.49,18.13,10.93,25.35,10.93Z" transform="translate(0 0)"/><path class="cls-8" d="M53.83,84.58C53.23,78.78,56,73.64,60,73.09s7.74,3.7,8.34,9.5-2.16,10.94-6.17,11.49S54.43,90.37,53.83,84.58Z" transform="translate(0 0)"/><path class="cls-9" d="M78.33,138.23s-26.66,3.9-30.6,8C44.3,149.8,37.18,184,35.53,191.51H95.75V139.68Z" transform="translate(0 0)"/><polygon class="cls-10" points="95.75 139.67 81.52 133.95 78.01 137.51 85.09 153.22 95.75 139.67"/><polygon class="cls-10" points="95.75 139.67 109.99 133.95 113.5 137.51 106.41 153.22 95.75 139.67"/><path class="cls-11" d="M131.67,73.95s11.52-52.53-36.15-52.53c-47.93,0-35.9,51.08-35.9,51.08s6.55-3.75,6.55,13h1.2a188.55,188.55,0,0,0,3-21.32c16.85,0,31.76-2.16,44.29-12.53,7.12,0,8.09,8.86,8.09,15.65l-3.12,1.21s3,5.91,3.23,17h2.16S124.73,67,131.67,73.95Z" transform="translate(0 0)"/><path class="cls-10" d="M95.75,111.63c6.35,0,11.49-2.1,11.49-4.68h-23C84.26,109.54,89.41,111.63,95.75,111.63Z" transform="translate(0 0)"/></g></g></g></g></svg>